<?xml version="1.0" encoding="UTF-8" standalone="no"?>
<!-- Created with Inkscape (http://www.inkscape.org/) -->

<svg
   version="1.1"
   id="svg2"
   width="853"
   height="853"
   viewBox="0 0 852.99998 852.99998"
   sodipodi:docname="vecteezy_cute-arrogant-black-cat-sitting-with-yellow-eyes_15111139.svg"
   inkscape:version="1.3.1 (91b66b0783, 2023-11-16)"
   xmlns:inkscape="http://www.inkscape.org/namespaces/inkscape"
   xmlns:sodipodi="http://sodipodi.sourceforge.net/DTD/sodipodi-0.dtd"
   xmlns="http://www.w3.org/2000/svg"
   xmlns:svg="http://www.w3.org/2000/svg">
  <defs
     id="defs6" />
  <sodipodi:namedview
     id="namedview4"
     pagecolor="#ffffff"
     bordercolor="#000000"
     borderopacity="0.25"
     inkscape:showpageshadow="2"
     inkscape:pageopacity="0.0"
     inkscape:pagecheckerboard="0"
     inkscape:deskcolor="#d1d1d1"
     inkscape:zoom="1.2441543"
     inkscape:cx="460.95569"
     inkscape:cy="329.943"
     inkscape:window-width="1920"
     inkscape:window-height="1009"
     inkscape:window-x="-8"
     inkscape:window-y="-8"
     inkscape:window-maximized="1"
     inkscape:current-layer="layer1" />
  <g
     id="g8"
     inkscape:groupmode="layer"
     inkscape:label="ink_ext_XXXXXX"
     transform="matrix(1.3333333,0,0,-1.3333333,0,2666.6667)"
     style="display:none">
    <g
       id="g10"
       transform="matrix(0.03164031,0,0,0.03164031,-4.2197338,1367.7965)">
      <path
         d="M 20000,0 H 0 V 20000 H 20000 V 0"
         style="fill:#ffffff;fill-opacity:1;fill-rule:nonzero;stroke:none"
         id="path12" />
      <path
         d="m 15140.4,4375.9 c -92.8,-693.4 -350.9,-1322.5 -753.8,-1891.8 -111.8,-158 -229.7,-315.4 -366.8,-450.7 -138.4,-136.6 -297.6,-255.2 -459.3,-364.7 -399.9,-270.6 -859.1,-379.6 -1326.7,-456 -471.5,-77.1 -946.7,-88.7 -1423.5,-66.7 -293.8,13.5 -588,18.6 -882.01,29.7 -109.6,4.2 -218.96,14.8 -339.35,23.2 101.97,75.6 191.09,143.2 281.84,208.6 220.12,158.6 377.82,371.2 516.22,599.5 201,331.5 321.8,694.7 416.5,1068.3 96.3,379.7 105,763.7 55,1149.4 -29.1,224.4 -54.7,451.6 -112.4,669.4 -87.5,330.9 -203.7,654 -303.8,981.6 -110.7,362.5 -253.4,715.8 -317.9,1091.7 -8.6,50.2 -9.5,101.9 -20,151.6 -7.8,36.9 -19.1,75.8 -39.6,106.6 -43.8,65.6 -119.99,60.3 -156.95,-10 -25.4,-48.2 -43.29,-100.4 -79.12,-152.3 -26.58,118.4 -56.85,236.1 -79.02,355.2 -53.15,285.8 -82.91,573.8 -72.27,865.1 1.04,28.5 7.28,60.1 -2.48,85 -12.13,30.9 -33.72,71.7 -59.86,79.6 -26.91,8.1 -73.68,-9.5 -94.55,-31.9 -25.99,-27.9 -37.7,-71.1 -49.61,-109.6 -21.45,-69.3 -38.46,-140.1 -60.43,-221.8 0,104.8 -5.35,197.2 1.17,288.7 11.78,165.4 41.05,327.9 103.66,483 21.04,52.1 26.04,104.7 -29.3,142.2 -52.45,35.5 -109.08,30.9 -162.13,-17.2 -49.58,-45 -95.64,-93.9 -156.85,-135.2 44.1,111.9 75.62,231.2 135.35,334 82.43,142 185.28,272.2 280.95,406.4 114.99,161.2 236.29,318.1 346.59,482.5 232.05,345.8 392.05,723.1 486.75,1129.4 98.9,424.7 180.1,851.4 166.4,1289.8 -9.4,300.3 -34,599.7 -124.2,888.9 -27.9,89.3 -64.2,176 -98.4,263.4 -24.1,61.7 -65.7,95.6 -133.4,119.8 -279.13,99.7 -548.11,223.4 -798.17,384.5 -415.64,267.8 -792.39,585.8 -1142.96,931.3 -205.57,202.7 -377.97,439.1 -562.66,662.5 -38.48,46.6 -65.37,102.7 -101.3,160.4 87.41,63.7 171.3,124.3 254.5,185.8 160.95,118.8 321.24,238.7 482.34,357.3 126.58,93.3 207.21,222.7 287.83,353.8 135.67,220.7 282.55,434.6 412.75,658.3 131.16,225.3 248.08,459 370.42,689.4 21.37,40.3 38.72,82.6 57.92,124 4.93,-1.2 9.86,-2.4 14.79,-3.6 0,-64.2 -4.21,-128.7 0.81,-192.5 13.89,-176.6 25.59,-353.8 49.58,-529.2 23.13,-169.2 43.65,-182.5 214.57,-197.4 259.18,-22.5 518.48,-27.8 774.98,24.6 231.4,47.3 459.9,17 687.8,-19.1 242.7,-38.4 486.1,-57.4 731.8,-59.2 100.3,-0.8 184,34.4 260.1,91.4 23.5,17.5 40.3,51.6 48.1,81.3 67.9,257.9 78,519.3 49.7,784 -9.1,86 -1.4,173.8 6.4,260.2 39.4,-102 79.2,-203.9 118.1,-306.1 99.5,-260.9 263.7,-482 427.9,-703.9 157.6,-213.3 313.5,-428 425.7,-670.9 49.6,-107.2 113,-208 168.8,-312.4 75.1,-140.6 191.2,-241.1 315.6,-336.1 152.6,-116.4 301.2,-238.1 450.2,-359.1 82.2,-66.8 86.9,-75.5 19.5,-155.1 -104.1,-123 -216,-239.4 -325.9,-357.4 -249.1,-267.4 -534.8,-491.1 -836.8,-694.9 -364,-245.5 -726.4,-493.8 -1126.6,-679.1 -68.2,-31.5 -141.8,-51.9 -208.6,-86 -33.6,-17.1 -64.6,-49 -84.6,-81.7 -179.8,-294.3 -270.2,-622.2 -322,-957.2 -88.5,-572.3 -65,-1141.3 130.7,-1692.7 137.2,-386.6 332.2,-742.6 567.6,-1080.6 141.5,-203.2 315.3,-373.4 476.2,-557 184.5,-210.4 368.3,-421.5 558.4,-626.8 280.2,-302.6 564.4,-601.4 849.3,-899.6 275.7,-288.6 540.1,-586.4 742.1,-932.8 170.3,-292 318.4,-598.1 381.6,-930.3 30.4,-160.2 56.1,-323.9 91.4,-482.9 91.6,-412.2 50.2,-820.5 -4.6,-1229.9 z m -917.2,3523.6 c -335.7,354.3 -673.2,706.9 -1005,1064.8 -259.6,280.1 -514.2,564.8 -766.3,851.7 -285.9,325.4 -518.6,685.2 -695.3,1082.6 -162.3,365 -255.6,744.9 -275,1142.2 -22.4,457.8 43,904.8 195.9,1337 60.6,171.6 133.7,340.1 342,384.1 9.7,2 18.3,8.8 27.6,13.2 342.9,161.4 658.5,368.5 974.7,575.7 418.6,274.2 813.9,574.8 1145.9,952.2 90.2,102.5 192.8,198.1 263.2,313 101,164.9 104,175.1 -43.5,303.4 -163.3,141.9 -335.8,273.3 -504,409.5 -56.9,46.1 -122.6,85.2 -167.5,141 -59.6,74.1 -105,160.1 -152.7,243.2 -110.6,192.8 -211.9,391.3 -330.2,579.2 -106.4,169 -228.8,328.1 -347,489.4 -214.7,292.7 -356,617 -428.6,972.2 -13,63.7 -26.8,128 -48.5,189.1 -18.5,52.4 -96,92.7 -144.9,81.8 -65.9,-14.7 -74.2,-67.3 -76.5,-123.2 -1,-24.4 -4.3,-48.8 -7.9,-73 -31.2,-210.4 -58.6,-421.2 -35.4,-634.3 22.6,-206.8 17.1,-411.6 -30.6,-614.7 -16.4,-70.1 -55.5,-110.9 -126.3,-108.4 -181.4,6.4 -364.5,5.9 -543.6,31.7 -361,52.2 -717.5,91.1 -1083.7,24.7 -183.6,-33.3 -378.09,-6.9 -567.66,-5.8 -30.33,0.1 -60.47,6.9 -65.93,48.4 -11.41,87 -35.54,173.5 -36.73,260.4 -3.5,255.2 2.79,510.5 2.95,765.7 0.07,114.3 -3.67,228.7 -8.97,342.9 -2.71,58.5 -45.27,99.2 -96.16,100.8 -52.81,1.6 -81.2,-26.4 -90.86,-93.8 -33.54,-234 -104.08,-456.8 -203.04,-671 -141.35,-305.9 -284.71,-609.9 -492.32,-879.8 -91.68,-119.1 -173.65,-248.9 -240,-383.8 -112.05,-227.7 -265.06,-413 -475.84,-555.3 -213.02,-143.8 -419.79,-296.8 -629.74,-445.1 -43.48,-30.7 -57.31,-86.2 -29.32,-135.4 10.04,-17.7 25.14,-32.5 34.73,-50.3 172.4,-320.6 412.67,-591.9 668.24,-842.1 291.08,-285 609.44,-543.7 929.02,-797.4 329.94,-261.9 704.22,-450.2 1101.33,-592.1 16.6,-5.9 34.7,-21.9 41.7,-37.8 27.2,-61.4 53.4,-123.7 74,-187.6 98,-302.4 127,-615.9 131.2,-930.6 5.6,-421.1 -76.4,-831.2 -174.6,-1239.4 -91,-378.2 -245.88,-726.6 -462.23,-1047.3 -130.1,-192.8 -266.62,-382.3 -412.92,-563 -165.06,-203.9 -287.07,-428.7 -350.15,-680.4 -38.88,-155.2 -47.62,-318.1 -66.86,-477.9 -5.94,-49.4 17.03,-90.1 67.89,-102.9 55.31,-14 88.92,19.2 110.84,65.2 28.06,58.9 52.43,119.7 81.91,177.8 15.04,29.6 37.79,55.4 66.62,96.5 -12.99,-107.9 -23.06,-196.9 -34.49,-285.7 -42.15,-327.5 22.09,-646.8 74.72,-966.9 11.26,-68.6 59.41,-111.2 113.87,-106.8 54.25,4.4 83.79,46 84.38,121.3 0.66,85.7 0.15,171.4 0.15,257.1 7.36,0.1 14.71,0.2 22.07,0.4 3.8,-27.9 7.83,-55.8 11.36,-83.7 36.19,-286.6 103.74,-565.9 202.77,-837 10.96,-30 53.7,-67 81.85,-67.2 32.04,-0.1 68.8,33.2 94.89,60.2 19.3,20 24.81,53.3 41.53,92.6 7.18,-25.6 10.47,-38.4 14.33,-50.9 106.57,-347 210.67,-694.7 320.37,-1040.6 153.6,-484 322.6,-963.3 380,-1472.6 32.6,-289.4 54.5,-579.4 11.5,-867.4 -72.1,-482.5 -220.4,-941.9 -476.9,-1360.1 -120.9,-197.2 -265.72,-375 -453.79,-517.5 -144.48,-109.5 -296.32,-202.2 -460.06,-277.8 -50.7,-23.4 -93.25,-58.4 -82.48,-121.8 10.73,-63.2 61.56,-83.5 117.67,-88.1 280.69,-22.6 561.3,-47.1 842.36,-64.5 187.5,-11.598 375.7,-9.898 563.5,-18.398 624.5,-28.5 1245,-7.801 1858.4,128.298 443,98.2 861.9,250.1 1225.3,530.2 105,80.9 214.6,159 306.2,253.8 462.9,479.5 786,1045.4 1007.1,1671 105.2,297.6 152.1,608.2 200.6,919.4 90.6,580.7 29.7,1150.1 -117.3,1711 -173,660.3 -526.7,1221.7 -993.8,1714.7"
         style="fill:#231f20;fill-opacity:1;fill-rule:nonzero;stroke:none"
         id="path14" />
      <path
         d="M 8604.1,9813.2 C 8457.73,9267.2 8221.03,8761.4 7885.58,8308 7700.37,8057.8 7488.54,7825.6 7274.93,7598.2 6780.65,7072.1 6299.43,6535.1 5905.74,5928 5631.46,5505.1 5428.26,5049.4 5363.01,4542.6 c -32.08,-249.1 -22.47,-496.6 35.1,-742.3 31.13,-132.9 50.84,-268.5 81.77,-401.4 104.52,-449.3 328.91,-835.8 621.69,-1187.5 238.95,-287.1 517.47,-526.7 835.17,-721.9 15.62,-9.6 30.52,-20.3 45.43,-31 2.91,-2.1 4.34,-6.3 12.4,-18.5 -53.57,18.7 -99.36,33.7 -144.51,50.5 -462.89,172.6 -885.62,412.6 -1229.58,771.2 -115.92,120.8 -206.56,267.4 -300.09,407.9 -305.62,459.4 -461.75,969.4 -501.16,1517.2 -8.64,120 -21.54,240.8 -17.14,360.6 16.46,448.7 147.99,865 364.14,1257.2 284.61,516.3 641.85,979.7 1029.92,1420.6 192.88,219.1 387.07,437.3 587.35,649.6 210.1,222.8 434.11,432.6 641.46,657.8 340.28,369.5 570.35,797.6 656.73,1297.9 62.2,360.3 44.45,716.4 -50.37,1068 -45.4,168.4 -110.95,330.8 -237.23,456.9 -138.73,138.5 -319.61,195.7 -506.25,226 -98.71,16 -202.28,6.5 -303.29,1.4 -32.07,-1.7 -65.8,-22.2 -93.9,-41.3 -96.8,-65.6 -90.53,-170.5 16.47,-220.7 49.26,-23.1 66.06,-56.8 68.77,-103.9 2.1,-36.6 4.08,-73.9 -0.12,-110.1 -11,-95.1 -56.25,-161.6 -153.73,-191.7 -148.52,-46 -287.64,-29.3 -415.88,55.3 -122.63,80.9 -162.58,214.3 -185.35,346.7 -52.1,303 96.51,586.8 369.5,729.3 456.07,238 917.4,228.8 1380.08,23.4 177.31,-78.7 310.83,-216.4 408.95,-377.3 135.06,-221.5 234.45,-462 290,-717.2 85.49,-393 37.31,-779.6 -65.24,-1162.1 z m -35.53,1912 c -100.43,187.7 -239.63,350.5 -428.26,452.8 -524.91,284.7 -1061.25,303.3 -1602.59,42 -379.09,-183 -558.59,-554.6 -490.77,-943.4 29.33,-168.1 87.51,-332.1 234.55,-437.4 205.33,-147 428.85,-166.9 661.83,-67.5 70.34,30 123.51,79.4 157.51,147.8 81.96,164.9 75.78,329.7 -7.67,505.2 196.68,-7.3 372.79,-56.2 533.34,-158.4 8.47,-5.4 15.53,-13.2 22.66,-20.5 110.64,-112.5 172.69,-251.6 211.5,-401.2 75.57,-291.2 102.81,-586 59.87,-885.9 -52.36,-365.6 -176.09,-702 -390.56,-1005.4 -126.85,-179.5 -280.01,-333.6 -430.5,-491.9 -339.03,-356.6 -677.24,-714.2 -1005.06,-1081 -403.47,-451.5 -773.13,-929.1 -1068.58,-1460.7 -138.59,-249.4 -253.66,-510 -324.06,-784.3 -71.54,-278.8 -92.34,-566.1 -70.28,-856.9 31.75,-418.2 106.83,-823.7 272.33,-1212 126.83,-297.6 294.08,-571.1 491.96,-822.8 191.84,-243.9 440.87,-430.3 706.17,-590.9 374.69,-226.9 778.1,-387.5 1202.64,-491 173.6,-42.3 353.14,-60.8 530.45,-86.8 48.97,-7.2 89.82,14.1 100.82,67.8 10.82,52.9 -16.43,85.8 -63.95,104 -34.26,13.2 -68.84,25.5 -103.48,37.7 -559.6,196.1 -1046.55,504.2 -1444.65,945.8 -370.96,411.6 -640.69,873.6 -709.17,1436.4 -16.93,139.1 -66.63,274.5 -80.92,413.7 -40.81,397.6 49.01,775.1 199.91,1140.1 158.05,382.4 380.34,727.3 634.89,1050.5 210.82,267.7 429.85,529.4 653.97,786.2 186.44,213.5 389.97,412.2 577.76,624.6 159.38,180.4 318.37,363 457.72,558.7 330.66,464.4 570.69,974.5 718.73,1526 106.95,398.4 153.95,801.5 74.91,1211.9 -51.1,265.3 -156.85,510.9 -283.02,746.8"
         style="fill:#231f20;fill-opacity:1;fill-rule:nonzero;stroke:none"
         id="path16" />
      <path
         d="m 11276.6,15406.2 c 41.1,64.6 80.9,130.9 129.3,189.7 241.3,293 543,505 893.1,647.5 253.7,103.3 513.8,73.3 771.9,18.7 97.5,-20.5 192.2,-54.6 287.8,-83.7 87.8,-26.7 147.8,-108.9 66.7,-213.2 -239.3,-307.9 -525.7,-548.8 -910.4,-648.7 -259.4,-67.4 -525.2,-93.5 -794.5,-105.3 -111.1,12.3 -222.5,22.9 -333.3,38 -29.2,4 -58.9,18.3 -84,34.6 -44.9,28.9 -55.3,77.3 -26.6,122.4 z m -156.7,-1025.3 c -91.7,-27.1 -184.5,-35.9 -275.6,3.4 -72.4,31.3 -123.3,81.7 -126.9,164.8 -3.7,83 46.7,133.2 116.7,162.7 46,19.4 96.6,28.3 138,39.8 56.1,-10.7 103.2,-15.6 147.7,-29.1 87.3,-26.4 129.6,-88.6 128,-178.5 -1.6,-88.4 -37.4,-136.3 -127.9,-163.1 z m -677.8,871.9 c -19.4,-6.2 -39.3,-12.1 -59.4,-14.5 -60.7,-7.1 -121.6,-12.4 -182.5,-18.4 -533.15,27.9 -1026.34,165.8 -1441.09,518.5 -67.72,57.6 -125.3,128.3 -181.6,197.8 -52.87,65.2 -35.48,165.7 36.39,201.8 415.94,209 841.25,266.8 1274.28,55.3 217.92,-106.4 360.62,-296.1 496.52,-488.2 56.3,-79.5 105.8,-164.8 149.3,-252 45.3,-90.8 5.3,-169.5 -91.9,-200.3 z m 4611.5,-9164.1 c -63.2,332.2 -211.3,638.3 -381.6,930.3 -202,346.4 -466.4,644.2 -742.1,932.8 -284.9,298.2 -569.1,597 -849.3,899.6 -190.1,205.3 -373.9,416.4 -558.4,626.8 -160.9,183.6 -334.7,353.8 -476.2,557 -235.4,338 -430.4,694 -567.6,1080.6 -195.7,551.4 -219.2,1120.4 -130.7,1692.7 51.8,335 142.2,662.9 322,957.2 20,32.7 51,64.6 84.6,81.7 66.8,34.1 140.4,54.5 208.6,86 400.2,185.3 762.6,433.6 1126.6,679.1 302,203.8 587.7,427.5 836.8,694.9 109.9,118 221.8,234.4 325.9,357.4 67.4,79.6 62.7,88.3 -19.5,155.1 -149,121 -297.6,242.7 -450.2,359.1 -124.4,95 -240.5,195.5 -315.6,336.1 -55.8,104.4 -119.2,205.2 -168.8,312.4 -112.2,242.9 -268.1,457.6 -425.7,670.9 -164.2,221.9 -328.4,443 -427.9,703.9 -38.9,102.2 -78.7,204.1 -118.1,306.1 -7.8,-86.4 -15.5,-174.2 -6.4,-260.2 28.3,-264.7 18.2,-526.1 -49.7,-784 -7.8,-29.7 -24.6,-63.8 -48.1,-81.3 -76.1,-57 -159.8,-92.2 -260.1,-91.4 -245.7,1.8 -489.1,20.8 -731.8,59.2 -227.9,36.1 -456.4,66.4 -687.8,19.1 -256.5,-52.4 -515.8,-47.1 -774.98,-24.6 -170.92,14.9 -191.44,28.2 -214.57,197.4 -23.99,175.4 -35.69,352.6 -49.58,529.2 -5.02,63.8 -0.81,128.3 -0.81,192.5 -4.93,1.2 -9.86,2.4 -14.79,3.6 -19.2,-41.4 -36.55,-83.7 -57.92,-124 -122.34,-230.4 -239.26,-464.1 -370.42,-689.4 -130.2,-223.7 -277.08,-437.6 -412.75,-658.3 -80.62,-131.1 -161.25,-260.5 -287.83,-353.8 -161.1,-118.6 -321.39,-238.5 -482.34,-357.3 -83.2,-61.5 -167.09,-122.1 -254.5,-185.8 35.93,-57.7 62.82,-113.8 101.3,-160.4 184.69,-223.4 357.09,-459.8 562.66,-662.5 350.57,-345.5 727.32,-663.5 1142.96,-931.3 250.06,-161.1 519.04,-284.8 798.17,-384.5 67.7,-24.2 109.3,-58.1 133.4,-119.8 34.2,-87.4 70.5,-174.1 98.4,-263.4 90.2,-289.2 114.8,-588.6 124.2,-888.9 13.7,-438.4 -67.5,-865.1 -166.4,-1289.8 -94.7,-406.3 -254.7,-783.6 -486.75,-1129.4 -110.3,-164.4 -231.6,-321.3 -346.59,-482.5 -95.67,-134.2 -198.52,-264.4 -280.95,-406.4 -59.73,-102.8 -91.25,-222.1 -135.35,-334 61.21,41.3 107.27,90.2 156.85,135.2 53.05,48.1 109.68,52.7 162.13,17.2 55.34,-37.5 50.34,-90.1 29.3,-142.2 -62.61,-155.1 -91.88,-317.6 -103.66,-483 -6.52,-91.5 -1.17,-183.9 -1.17,-288.7 21.97,81.7 38.98,152.5 60.43,221.8 11.91,38.5 23.62,81.7 49.61,109.6 20.87,22.4 67.64,40 94.55,31.9 26.14,-7.9 47.73,-48.7 59.86,-79.6 9.76,-24.9 3.52,-56.5 2.48,-85 -10.64,-291.3 19.12,-579.3 72.27,-865.1 22.17,-119.1 52.44,-236.8 79.02,-355.2 35.83,51.9 53.72,104.1 79.12,152.3 36.96,70.3 113.15,75.6 156.95,10 20.5,-30.8 31.8,-69.7 39.6,-106.6 10.5,-49.7 11.4,-101.4 20,-151.6 64.5,-375.9 207.2,-729.2 317.9,-1091.7 100.1,-327.6 216.3,-650.7 303.8,-981.6 57.7,-217.8 83.3,-445 112.4,-669.4 50,-385.7 41.3,-769.7 -55,-1149.4 -94.7,-373.6 -215.5,-736.8 -416.5,-1068.3 -138.4,-228.3 -296.1,-440.9 -516.22,-599.5 -90.75,-65.4 -179.87,-133 -281.84,-208.6 120.39,-8.4 229.75,-19 339.35,-23.2 294.01,-11.1 588.21,-16.2 882.01,-29.7 476.8,-22 952,-10.4 1423.5,66.7 467.6,76.4 926.8,185.4 1326.7,456 161.7,109.5 320.9,228.1 459.3,364.7 137.1,135.3 255,292.7 366.8,450.7 402.9,569.3 661,1198.4 753.8,1891.8 54.8,409.4 96.2,817.7 4.6,1229.9 -35.3,159 -61,322.7 -91.4,482.9"
         style="fill:#231f20;fill-opacity:1;fill-rule:nonzero;stroke:none"
         id="path18" />
      <path
         d="m 8379.34,11692.5 c -98.12,160.9 -231.64,298.6 -408.95,377.3 -462.68,205.4 -924.01,214.6 -1380.08,-23.4 -272.99,-142.5 -421.6,-426.3 -369.5,-729.3 22.77,-132.4 62.72,-265.8 185.35,-346.7 128.24,-84.6 267.36,-101.3 415.88,-55.3 97.48,30.1 142.73,96.6 153.73,191.7 4.2,36.2 2.22,73.5 0.12,110.1 -2.71,47.1 -19.51,80.8 -68.77,103.9 -107,50.2 -113.27,155.1 -16.47,220.7 28.1,19.1 61.83,39.6 93.9,41.3 101.01,5.1 204.58,14.6 303.29,-1.4 186.64,-30.3 367.52,-87.5 506.25,-226 126.28,-126.1 191.83,-288.5 237.23,-456.9 94.82,-351.6 112.57,-707.7 50.37,-1068 -86.38,-500.3 -316.45,-928.4 -656.73,-1297.9 -207.35,-225.2 -431.36,-435 -641.46,-657.8 -200.28,-212.3 -394.47,-430.5 -587.35,-649.6 -388.07,-440.9 -745.31,-904.3 -1029.92,-1420.6 -216.15,-392.2 -347.68,-808.5 -364.14,-1257.2 -4.4,-119.8 8.5,-240.6 17.14,-360.6 39.41,-547.8 195.54,-1057.8 501.16,-1517.2 93.53,-140.5 184.17,-287.1 300.09,-407.9 343.96,-358.6 766.69,-598.6 1229.58,-771.2 45.15,-16.8 90.94,-31.8 144.51,-50.5 -8.06,12.2 -9.49,16.4 -12.4,18.5 -14.91,10.7 -29.81,21.4 -45.43,31 -317.7,195.2 -596.22,434.8 -835.17,721.9 -292.78,351.7 -517.17,738.2 -621.69,1187.5 -30.93,132.9 -50.64,268.5 -81.77,401.4 -57.57,245.7 -67.18,493.2 -35.1,742.3 65.25,506.8 268.45,962.5 542.73,1385.4 393.69,607.1 874.91,1144.1 1369.19,1670.2 213.61,227.4 425.44,459.6 610.65,709.8 335.45,453.4 572.15,959.2 718.52,1505.2 102.55,382.5 150.73,769.1 65.24,1162.1 -55.55,255.2 -154.94,495.7 -290,717.2"
         style="fill:#231f20;fill-opacity:1;fill-rule:nonzero;stroke:none"
         id="path20" />
      <path
         d="m 12149.2,15974.9 c 0,-91.4 -6.2,-181.1 1.8,-269.5 7.7,-86.3 29.9,-171.2 47.3,-265 -223.9,-42.5 -459.4,-52.4 -710.8,-34.8 180,254.4 410.2,428.9 661.7,569.3 z m 1093.6,52.7 c -188.8,-244.5 -420.7,-419.7 -718.9,-526.7 74.7,213.9 101.7,416.7 -27,618.3 259.7,35 501,-9.8 745.9,-91.6 z m -1855.6,-778.4 c 110.8,-15.1 222.2,-25.7 333.3,-38 269.3,11.8 535.1,37.9 794.5,105.3 384.7,99.9 671.1,340.8 910.4,648.7 81.1,104.3 21.1,186.5 -66.7,213.2 -95.6,29.1 -190.3,63.2 -287.8,83.7 -258.1,54.6 -518.2,84.6 -771.9,-18.7 -350.1,-142.5 -651.8,-354.5 -893.1,-647.5 -48.4,-58.8 -88.2,-125.1 -129.3,-189.7 -28.7,-45.1 -18.3,-93.5 26.6,-122.4 25.1,-16.3 54.8,-30.6 84,-34.6"
         style="fill:#231f20;fill-opacity:1;fill-rule:nonzero;stroke:none"
         id="path22" />
      <path
         d="m 9647.83,15477.2 c 76.92,190.4 145.72,369.1 113.93,583.5 281.44,-147.6 435.04,-391.7 599.44,-644.4 -251,-41.3 -476.23,28.8 -713.37,60.9 z m -902.05,532.3 c 210.19,100 423.4,136.2 654.81,133.8 m 984.11,-438.2 c -135.9,192.1 -278.6,381.8 -496.52,488.2 -433.03,211.5 -858.34,153.7 -1274.28,-55.3 -71.87,-36.1 -89.26,-136.6 -36.39,-201.8 56.3,-69.5 113.88,-140.2 181.6,-197.8 414.75,-352.7 907.94,-490.6 1441.09,-518.5 60.9,6 121.8,11.3 182.5,18.4 20.1,2.4 40,8.3 59.4,14.5 97.2,30.8 137.2,109.5 91.9,200.3 -43.5,87.2 -93,172.5 -149.3,252"
         style="fill:#231f20;fill-opacity:1;fill-rule:nonzero;stroke:none"
         id="path24" />
      <path
         d="m 11119.8,14722.5 c -44.5,13.5 -91.6,18.4 -147.7,29.1 -41.4,-11.5 -92,-20.4 -138,-39.8 -70,-29.5 -120.4,-79.7 -116.7,-162.7 3.6,-83.1 54.5,-133.5 126.9,-164.8 91.1,-39.3 183.9,-30.5 275.6,-3.4 90.5,26.8 126.3,74.7 127.9,163.1 1.6,89.9 -40.7,152.1 -128,178.5"
         style="fill:#231f20;fill-opacity:1;fill-rule:nonzero;stroke:none"
         id="path26" />
      <path
         d="m 12523.9,15500.9 c 298.2,107 530.1,282.2 718.9,526.7 -244.9,81.8 -486.2,126.6 -745.9,91.6 128.7,-201.6 101.7,-404.4 27,-618.3"
         style="fill:#fddd10;fill-opacity:1;fill-rule:nonzero;stroke:none"
         id="path28" />
      <path
         d="m 12198.3,15440.4 c -17.4,93.8 -39.6,178.7 -47.3,265 -8,88.4 -1.8,178.1 -1.8,269.5 -251.5,-140.4 -481.7,-314.9 -661.7,-569.3 251.4,-17.6 486.9,-7.7 710.8,34.8"
         style="fill:#fddd10;fill-opacity:1;fill-rule:nonzero;stroke:none"
         id="path30" />
      <path
         d="m 10361.2,15416.3 c -251,-41.3 -476.2,28.8 -713.4,60.9 76.9,190.4 145.8,369.1 114,583.5 281.4,-147.6 435,-391.7 599.4,-644.4"
         style="fill:#fddd10;fill-opacity:1;fill-rule:nonzero;stroke:none"
         id="path32" />
      <path
         d="m 9421.9,15547.7 c -259,122.4 -496.7,240.4 -676.1,461.8 210.2,100 423.4,136.2 654.8,133.8 -82.9,-198.4 -83.4,-390.7 21.3,-595.6"
         style="fill:#fddd10;fill-opacity:1;fill-rule:nonzero;stroke:none"
         id="path34" />
      <path
         d="m 9647.8,15477.2 c -123.8,17 -225.9,70.5 -225.9,70.5 -104.7,204.9 -104.2,397.2 -21.3,595.6 0,0 226,2.1 361.2,-82.6 31.8,-214.4 -37.1,-393.1 -114,-583.5"
         style="fill:#231f20;fill-opacity:1;fill-rule:nonzero;stroke:none"
         id="path36" />
    </g>
  </g>
  <g
     inkscape:groupmode="layer"
     id="layer1"
     inkscape:label="Тело">
    <path
       style="fill:none;stroke:#000000;stroke-width:0.327168px;stroke-linecap:butt;stroke-linejoin:miter;stroke-opacity:1"
       d="M 493.14507,259.10394 C 433.82139,348.56965 534.21529,445.30897 534.21529,445.30897 644.49646,541.32092 646.01765,604.60158 646.01765,604.60158 669.59493,851.9052 383.62446,795.89812 383.62446,795.89812 383.62446,795.89812 548.66598,753.71108 375.25828,459.85622 375.25828,459.85622 355.48378,415.48704 388.94834,412.57761 388.94834,412.57761 477.17335,394.39347 426.97641,266.3776 426.97641,266.3776 344.83592,243.10196 299.96289,166.72876 299.96289,166.72876 361.56821,147.81729 392.75119,45.259123 392.75119,45.259123 382.8639,98.356607 397.31451,101.9934 397.31451,101.9934 448.27202,72.17154 509.87744,105.63027 509.87744,105.63027 524.32799,92.537732 515.96188,43.804328 515.96188,43.804328 521.28584,126.72383 610.27132,174.00243 610.27132,174.00243 577.56723,229.282 493.14507,259.10394 Z"
       id="path5" />
    <path
       style="fill:none;stroke:#000000;stroke-width:1px;stroke-linecap:butt;stroke-linejoin:miter;stroke-opacity:1"
       d="M 436.44103,196.11715 C 410.72075,134.22772 358.47642,167.18183 358.47642,167.18183 358.47642,167.18183 384.19671,202.54722 436.44103,196.11715 Z"
       id="path6" />
    <path
       style="fill:none;stroke:#000000;stroke-width:1px;stroke-linecap:butt;stroke-linejoin:miter;stroke-opacity:1"
       d="M 473.41393,194.50963 C 473.41393,194.50963 506.36804,141.46155 557.00485,165.57431 557.00485,165.57431 539.32215,207.36977 473.41393,194.50963 Z"
       id="path7" />
    <path
       style="fill:none;stroke:#000000;stroke-width:1px;stroke-linecap:butt;stroke-linejoin:miter;stroke-opacity:1"
       d="M 325.52232,795.72124 C 325.52232,795.72124 212.99609,786.87989 193.70588,676.76493 193.70588,676.76493 176.02318,604.42664 272.47424,515.20941 272.47424,515.20941 362.49523,448.49743 323.91481,372.9441 323.91481,372.9441 311.85842,354.45764 286.13814,359.2802 286.13814,359.2802 238.71637,366.51402 270.86672,331.14864 270.86672,331.14864 337.57871,299.80204 358.47644,366.51402 358.47644,366.51402 392.23431,444.47863 291.76445,538.51841 291.76445,538.51841 123.77885,702.48522 325.52232,795.72124 Z"
       id="path1" />
    <path
       style="fill:none;stroke:#000000;stroke-width:0.555002px;stroke-linecap:butt;stroke-linejoin:miter;stroke-opacity:1"
       d="M 403.26959,161.25979 C 403.26959,161.25979 387.17581,174.61366 403.71664,192.41882 C 403.71664,192.41882 417.57518,176.8393 403.26959,161.25979 Z"
       id="path2" />
    <path
       style="fill:none;stroke:#000000;stroke-width:0.555002px;stroke-linecap:butt;stroke-linejoin:miter;stroke-opacity:1"
       d="M 509.36576,162.86731 C 509.36576,162.86731 493.27198,176.22118 509.81281,194.02634 C 509.81281,194.02634 523.67135,178.44682 509.36576,162.86731 Z"
       id="path3" />
  </g>
</svg>
